<svg version="1.2" xmlns="http://www.w3.org/2000/svg" viewBox="0 0 963 366" width="963" height="366">
	<style>
		.s0 { fill: #ffffff } 
		.s1 { fill: #ff0000 } 
	</style>
	<path class="s0" d="m129 77c25.3-1.23 52.75 6.01 72 23 1.19 0.98 1.19 0.98 2.41 1.98 21.56 18.29 29.81 44.73 37.08 71.12q1.26 4.55 2.54 9.09 2.84 10.15 5.66 20.3c5.59 20.22 5.59 20.22 12.5 40.01q0.44 1.16 0.9 2.36c2.41 5.86 5.63 11.3 11.29 14.48q1.07 0.29 2.18 0.6 1.08 0.32 2.19 0.65c2.69 0.56 2.69 0.56 7.25 0.41 0-60.39 0-120.78 0-183 2.64 0 5.28 0 8 0q0.24 1.3 0.48 2.63c1.74 9.32 1.74 9.32 7.52 16.37 6.9 3.48 13.91 4.91 21.5 6 18.96 2.73 18.96 2.73 24.5 8.81 3.43 5.48 4.25 10.72 4.24 17.11 0 0.99 0 0.99 0.01 1.99q0 3.29-0.02 6.57 0 2.37 0 4.73 0 6.41-0.03 12.81-0.01 6.7-0.01 13.4-0.01 12.67-0.05 25.35-0.03 14.43-0.04 28.86-0.03 29.69-0.1 59.37c-21.78 0-43.56 0-66 0q0-2.96 0-6-0.94 0.49-1.91 0.99c-15.87 7.75-32.19 9.19-49.09 4.01-22.11-8.82-34.79-25.25-45.14-45.78-0.86-2.22-0.86-2.22-1.86-8.22-14.19 0.33-28.38 0.66-43 1 4.48 12.37 4.48 12.37 9.88 24.25q0.49 0.98 1 1.98c4.5 8.66 10.03 16.61 16.09 24.25 1.03 1.52 1.03 1.52 1.03 3.52-29.37 0-58.74 0-89 0 1.17-19.92 1.17-19.92 2.56-26.06q0.26-1.15 0.52-2.34c10.45-44.76 34.99-94.58 66.86-127.96 1.38-2.14 1.19-3.3 0.75-5.77q-0.78-2.46-1.69-4.87-0.54-1.55-1.09-3.15c-5.18-14.42-5.18-14.42-15.91-24.85-3.26-0.95-3.26-0.95-6-1 0-2.97 0-5.94 0-9zm29 56c-9.66 11.14-17.03 23.37-20 38q-0.27 1.3-0.55 2.64c-1.79 13.49-2.73 32.8 3.55 45.36 14.19 0 28.38 0 43 0-0.88-3.02-1.77-6.05-2.68-9.16q-11.21-38.41-22.32-76.84-0.49 0-1 0z"/>
	<path class="s0" d="m756.08 134.37c11.23 10.12 18.1 25.45 19.11 40.42q0.11 4.42 0.06 8.83-0.01 1.58-0.01 3.21c-0.07 5.83-0.4 11.46-1.24 17.23-0.96 6.62-1.29 13.13-1.38 19.81q-0.03 1.42-0.07 2.89c-0.02 7.08 1.07 14.38 5.9 19.9 3.08 2.67 6.48 5.19 10.63 5.49 5.25-0.52 8.78-1.86 13.1-4.9 1.87-1.28 3.77-2.28 5.82-3.25 2.06 1.75 2.06 1.75 4 4-0.26 5.27-5.08 8.66-8.66 12.05-16.06 14.53-37.51 23.75-59.34 22.95-13.25-2.04-22.89-6.45-31.13-17.13-13.55-19.18-10.05-45.95-6.93-68.06q0.27-1.94 0.55-3.94 0.27-1.89 0.55-3.83c2.3-16.36 5.11-37.31-3.69-52.25-2.73-3.62-5.28-4.5-9.54-5.67-6.14-0.2-11.72 0.95-16.31 5.19-2.66 4.77-3.75 9.08-3.77 14.53q-0.02 1.71-0.03 3.46 0 1.85 0 3.76c-0.02 1.97-0.02 1.97-0.03 3.99q-0.03 4.28-0.04 8.56-0.02 6.76-0.06 13.52-0.06 10.69-0.1 21.37-0.08 19.17-0.19 38.33-0.04 6.73-0.06 13.46-0.01 3.17-0.03 6.34-0.02 3.87-0.02 7.74-0.01 1.69-0.03 3.42c0 1.49 0 1.49-0.01 3-0.13 2.21-0.13 2.21-1.13 3.21-21.78 0-43.56 0-66 0 0-53.79 0-107.58 0-163 2.97 0 5.94 0 9 0 0.15 1.3 0.15 1.3 0.3 2.63 1.01 7.8 1.76 12.8 7.7 18.18 7.31 4.34 16.78 2.23 24.54 0.29 9.91-3.16 18.61-8.76 27.37-14.24 26-15.63 57.95-9.35 81.17 8.51z"/>
	<path class="s0" d="m369 81c2.97 0 5.94 0 9 0q0.16 1.1 0.33 2.23c0.85 5.22 1.55 9.38 4.67 13.77q0 0.99 0 2 2.5 1.01 5 2 1.66 0.7 3.38 1.43c6.75 2.53 13.98 3.36 21.07 4.5 8.28 1.46 14.83 3.69 20.55 10.07 2.6 6.36 3.12 12.86 3.13 19.68 0 1.96 0 1.96 0.01 3.95q-0.01 2.14-0.01 4.29 0 2.27 0 4.55 0.01 6.15 0 12.3 0 6.45 0.01 12.89 0 10.8-0.01 21.61-0.01 12.51 0 25.01 0.01 10.74 0 21.48 0 6.41 0.01 12.83 0 6.02-0.01 12.04 0 2.21 0 4.43 0.01 3.01 0 6.02c0 1.69 0 1.69 0 3.41-0.13 2.51-0.13 2.51-1.13 3.51-21.78 0-43.56 0-66 0 0-67.32 0-134.64 0-204z"/>
	<path class="s1" d="m523 141c4 2 4 2 6.4 3.97 9.27 7.23 22.67 8.35 33.92 10.15 8.87 1.49 17.76 3.17 23.43 10.76 3.9 6.61 3.54 15.24 3.49 22.69q0.01 1.5 0.01 3.05 0 4.93-0.02 9.85 0 3.44 0 6.88 0 7.18-0.02 14.36-0.03 9.22-0.02 18.44-0.01 7.08-0.02 14.17 0 3.4 0 6.8-0.01 4.74-0.02 9.47 0 1.41 0 2.86c-0.04 6.44-0.04 6.44-1.15 7.55-21.78 0-43.56 0-66 0 0-46.53 0-93.06 0-141z"/>
	<path class="s0" d="m879 219.34c7.89 6.55 12.24 14.88 13.24 25.1 0.27 9.46-1.72 20.37-8.24 27.56-6.13 5.21-12.11 9.2-20 11q-1.19 0.27-2.41 0.55c-11.38 1.97-23.9-0.03-33.59-6.55-9.02-7.43-12.86-15.67-14.26-27.11-0.5-9.13 2.53-19.11 8.44-26.11 14.87-14.55 39.78-16.83 56.82-4.44z"/>
	<path class="s1" d="m582.04 83.34c6.75 5.7 11.29 12.89 12.96 21.66 0.88 12.1-0.15 21.79-8.12 31.37-8.34 8.62-18.34 11.63-30.07 12-12.3-0.17-22.33-3.59-30.93-12.43-6.98-8.22-8.61-16.58-8.25-27.23 1.08-10.84 5.05-18.6 13.37-25.71 14.82-9.87 36.53-10.33 51.04 0.34z"/>
</svg>